<svg width="105" height="78" viewBox="0 0 105 78" fill="none" xmlns="http://www.w3.org/2000/svg">
<path d="M18.1314 20.5568H6.00583L6 51.3575C6.03848 60.2524 8.3892 68.9661 17.1205 72.8181C23.4718 75.6206 34.3498 75.665 40.8411 73.2972C49.5233 70.1301 52.7206 62.3244 53.1089 53.5721V20.5568H41.1011L41.1058 51.7069C40.988 58.7915 37.8887 64.0377 30.3211 64.3883C22.9226 64.7308 18.55 60.4008 18.1267 53.1093L18.1314 20.5568Z" fill="white"/>
<path d="M98.0001 30.0231H84.7085V43.3461H74.7972V30.0231H61.7388V20.5568H74.7972V7H84.7085V20.5568H98.0001V30.0231Z" fill="white"/>
<path d="M18.1314 20.5568L18.1267 53.1094C18.5512 60.3996 22.9226 64.7308 30.3211 64.3883C37.8887 64.0377 40.9868 58.7927 41.1058 51.7069L41.1011 20.5568H53.1101V53.571C52.7206 62.3233 49.5233 70.1289 40.8411 73.2961C34.3486 75.6638 23.4718 75.6194 17.1205 72.8169C8.3892 68.9649 6.03848 60.2524 6 51.3575L6.00583 20.5568H18.1314Z" fill="white"/>
</svg>
